<svg xmlns="http://www.w3.org/2000/svg" xmlns:xlink="http://www.w3.org/1999/xlink" width="415" zoomAndPan="magnify" viewBox="0 0 311.25 113.249998" height="151" preserveAspectRatio="xMidYMid meet" version="1.0"><defs><g/><clipPath id="c9213144ac"><path d="M 74 7 L 83.164062 7 L 83.164062 16 L 74 16 Z M 74 7 " clip-rule="nonzero"/></clipPath><clipPath id="1c96f43499"><path d="M 0.652344 95 L 9 95 L 9 104 L 0.652344 104 Z M 0.652344 95 " clip-rule="nonzero"/></clipPath></defs><path fill="#0e315d" d="M 58.769531 21.847656 L 55.554688 21.847656 L 55.554688 18.9375 C 54.414062 18.347656 53.117188 18.007812 51.75 18.007812 C 47.15625 18.007812 43.40625 21.773438 43.40625 26.363281 L 43.40625 84.648438 C 43.40625 89.238281 47.15625 93.003906 51.75 93.003906 C 56.144531 93.003906 59.769531 89.566406 60.074219 85.238281 C 61.066406 85.578125 62.121094 85.765625 63.226562 85.765625 C 68.535156 85.765625 72.835938 81.460938 72.835938 76.144531 C 72.835938 75.171875 72.699219 74.246094 72.433594 73.359375 C 77.589844 71.46875 81.265625 66.5 81.265625 60.683594 C 81.265625 57.328125 80.042969 54.257812 78.03125 51.894531 C 79.042969 50.3125 79.621094 48.425781 79.621094 46.398438 C 79.621094 41.777344 76.566406 37.875 72.375 36.585938 L 64.460938 36.585938 L 64.460938 26.433594 L 67.648438 26.433594 C 64.320312 21.660156 60.148438 21.902344 58.769531 21.847656 Z M 58.199219 41.0625 L 52.6875 41.0625 L 52.6875 46.589844 L 58.199219 46.589844 Z M 68.925781 40.105469 L 63.414062 40.105469 L 63.414062 45.621094 L 68.925781 45.621094 Z M 60.402344 34.46875 L 56.890625 34.46875 L 56.890625 37.972656 L 60.402344 37.972656 Z M 55.109375 29.761719 L 51.601562 29.761719 L 51.601562 33.265625 L 55.109375 33.265625 Z M 62.253906 23.640625 L 58.757812 23.640625 L 58.757812 27.15625 L 62.253906 27.15625 Z M 62.253906 23.640625 " fill-opacity="1" fill-rule="evenodd"/><g clip-path="url(#c9213144ac)"><path fill="#0e315d" d="M 83.164062 7.488281 L 74.667969 7.488281 L 74.667969 15.992188 L 83.164062 15.992188 Z M 83.164062 7.488281 " fill-opacity="1" fill-rule="evenodd"/></g><path fill="#0e315d" d="M 71.320312 14.28125 L 65.957031 14.28125 L 65.957031 19.65625 L 71.320312 19.65625 Z M 71.320312 14.28125 " fill-opacity="1" fill-rule="evenodd"/><path fill="#0e315d" d="M 81.453125 27.410156 L 76.082031 27.410156 L 76.082031 32.789062 L 81.453125 32.789062 Z M 81.453125 27.410156 " fill-opacity="1" fill-rule="evenodd"/><path fill="#0e315d" d="M 72.8125 0.0507812 L 69.011719 0.0507812 L 69.011719 3.859375 L 72.8125 3.859375 Z M 72.8125 0.0507812 " fill-opacity="1" fill-rule="evenodd"/><path fill="#0e315d" d="M 65.027344 4.957031 L 60.621094 4.957031 L 60.621094 9.355469 L 65.027344 9.355469 Z M 65.027344 4.957031 " fill-opacity="1" fill-rule="evenodd"/><path fill="#0e315d" d="M 78.335938 19.632812 L 74.53125 19.632812 L 74.53125 23.429688 L 78.335938 23.429688 Z M 78.335938 19.632812 " fill-opacity="1" fill-rule="evenodd"/><path fill="#0e315d" d="M 60.527344 15.53125 L 57.640625 15.53125 L 57.640625 18.417969 L 60.527344 18.417969 Z M 60.527344 15.53125 " fill-opacity="1" fill-rule="evenodd"/><path fill="#0e315d" d="M 73.140625 28.054688 L 65.914062 28.054688 L 65.914062 35.292969 L 73.140625 35.292969 Z M 73.140625 28.054688 " fill-opacity="1" fill-rule="evenodd"/><path fill="#007bff" d="M 24.867188 89.164062 L 28.082031 89.164062 L 28.082031 92.078125 C 29.222656 92.667969 30.515625 93.007812 31.886719 93.007812 C 36.46875 93.007812 40.230469 89.242188 40.230469 84.652344 L 40.230469 26.367188 C 40.230469 21.777344 36.46875 18.007812 31.886719 18.007812 C 27.492188 18.007812 23.867188 21.457031 23.5625 25.777344 C 22.570312 25.4375 21.503906 25.246094 20.410156 25.246094 C 15.101562 25.246094 10.789062 29.5625 10.789062 34.871094 C 10.789062 35.84375 10.9375 36.769531 11.199219 37.65625 C 6.046875 39.542969 2.359375 44.515625 2.359375 50.328125 C 2.359375 53.6875 3.582031 56.757812 5.605469 59.117188 C 4.59375 60.699219 4.015625 62.589844 4.015625 64.617188 C 4.015625 69.238281 7.058594 73.140625 11.261719 74.429688 L 19.175781 74.429688 L 19.175781 84.582031 L 15.984375 84.582031 C 19.316406 89.355469 23.476562 89.113281 24.867188 89.164062 Z M 25.4375 69.953125 L 30.949219 69.953125 L 30.949219 64.425781 L 25.4375 64.425781 Z M 14.699219 70.910156 L 20.222656 70.910156 L 20.222656 65.390625 L 14.699219 65.390625 Z M 23.234375 76.546875 L 26.734375 76.546875 L 26.734375 73.042969 L 23.234375 73.042969 Z M 28.527344 81.253906 L 32.035156 81.253906 L 32.035156 77.75 L 28.527344 77.75 Z M 21.371094 87.371094 L 24.878906 87.371094 L 24.878906 83.859375 L 21.371094 83.859375 Z M 21.371094 87.371094 " fill-opacity="1" fill-rule="evenodd"/><g clip-path="url(#1c96f43499)"><path fill="#007bff" d="M 8.96875 95.023438 L 0.460938 95.023438 L 0.460938 103.527344 L 8.96875 103.527344 Z M 8.96875 95.023438 " fill-opacity="1" fill-rule="evenodd"/></g><path fill="#007bff" d="M 17.679688 91.359375 L 12.316406 91.359375 L 12.316406 96.730469 L 17.679688 96.730469 Z M 17.679688 91.359375 " fill-opacity="1" fill-rule="evenodd"/><path fill="#007bff" d="M 7.546875 78.234375 L 2.183594 78.234375 L 2.183594 83.605469 L 7.546875 83.605469 Z M 7.546875 78.234375 " fill-opacity="1" fill-rule="evenodd"/><path fill="#007bff" d="M 14.613281 107.15625 L 10.8125 107.15625 L 10.8125 110.964844 L 14.613281 110.964844 Z M 14.613281 107.15625 " fill-opacity="1" fill-rule="evenodd"/><path fill="#007bff" d="M 23.011719 101.660156 L 18.609375 101.660156 L 18.609375 106.058594 L 23.011719 106.058594 Z M 23.011719 101.660156 " fill-opacity="1" fill-rule="evenodd"/><path fill="#007bff" d="M 9.09375 87.582031 L 5.296875 87.582031 L 5.296875 91.382812 L 9.09375 91.382812 Z M 9.09375 87.582031 " fill-opacity="1" fill-rule="evenodd"/><path fill="#007bff" d="M 25.996094 92.59375 L 23.109375 92.59375 L 23.109375 95.484375 L 25.996094 95.484375 Z M 25.996094 92.59375 " fill-opacity="1" fill-rule="evenodd"/><path fill="#007bff" d="M 17.714844 75.722656 L 10.492188 75.722656 L 10.492188 82.960938 L 17.714844 82.960938 Z M 17.714844 75.722656 " fill-opacity="1" fill-rule="evenodd"/><g fill="#0e315d" fill-opacity="1"><g transform="translate(98.871407, 46.824186)"><g><path d="M 17.175781 0.855469 C 24.71875 0.855469 30.65625 -4.066406 31.996094 -11.34375 L 24.128906 -11.34375 C 22.792969 -8.238281 20.332031 -6.527344 17.175781 -6.527344 C 13 -6.527344 9.738281 -10.003906 9.738281 -14.445312 C 9.738281 -18.941406 12.949219 -22.363281 17.175781 -22.363281 C 20.277344 -22.363281 22.898438 -20.652344 24.128906 -17.816406 L 31.886719 -17.816406 C 30.496094 -24.933594 24.71875 -29.695312 17.226562 -29.695312 C 8.453125 -29.695312 1.820312 -23.167969 1.820312 -14.5 C 1.820312 -5.832031 8.453125 0.855469 17.175781 0.855469 Z M 17.175781 0.855469 "/></g></g></g><g fill="#0e315d" fill-opacity="1"><g transform="translate(132.303195, 46.824186)"><g><path d="M 20.277344 -29.535156 C 16.800781 -29.535156 13.75 -28.25 11.554688 -26.164062 L 11.554688 -39.269531 L 3.746094 -39.269531 L 3.746094 0 L 11.554688 0 L 11.554688 -15.140625 C 11.554688 -19.847656 14.125 -22.683594 18.03125 -22.683594 C 21.507812 -22.683594 23.058594 -20.542969 23.058594 -16.210938 L 23.058594 0 L 30.871094 0 L 30.871094 -17.546875 C 30.871094 -24.878906 26.804688 -29.535156 20.277344 -29.535156 Z M 20.277344 -29.535156 "/></g></g></g><g fill="#0e315d" fill-opacity="1"><g transform="translate(166.590845, 46.824186)"><g><path d="M 27.285156 -28.890625 L 26.484375 -26.164062 C 23.96875 -28.355469 20.707031 -29.695312 16.960938 -29.695312 C 8.292969 -29.695312 1.820312 -23.167969 1.820312 -14.445312 C 1.820312 -5.726562 8.292969 0.855469 16.960938 0.855469 C 20.652344 0.855469 23.863281 -0.429688 26.324219 -2.621094 L 27.019531 0 L 33.117188 0 L 33.117188 -28.890625 Z M 17.601562 -6.527344 C 13.054688 -6.527344 9.738281 -9.953125 9.738281 -14.445312 C 9.738281 -18.992188 13.054688 -22.363281 17.601562 -22.363281 C 22.148438 -22.363281 25.46875 -18.992188 25.46875 -14.445312 C 25.46875 -9.898438 22.148438 -6.527344 17.601562 -6.527344 Z M 17.601562 -6.527344 "/></g></g></g><g fill="#0e315d" fill-opacity="1"><g transform="translate(203.499541, 46.824186)"><g><path d="M 3.746094 0 L 11.554688 0 L 11.554688 -39.269531 L 3.746094 -39.269531 Z M 3.746094 0 "/></g></g></g><g fill="#0e315d" fill-opacity="1"><g transform="translate(218.797929, 46.824186)"><g><path d="M 3.746094 0 L 11.554688 0 L 11.554688 -39.269531 L 3.746094 -39.269531 Z M 3.746094 0 "/></g></g></g><g fill="#0e315d" fill-opacity="1"><g transform="translate(234.096318, 46.824186)"><g><path d="M 31.78125 -14.5 C 31.78125 -22.84375 25.679688 -29.695312 16.800781 -29.695312 C 8.238281 -29.695312 1.820312 -23.113281 1.820312 -14.445312 C 1.820312 -5.777344 8.292969 0.855469 16.800781 0.855469 C 23.539062 0.855469 29.050781 -3.15625 31.136719 -9.46875 L 22.953125 -9.46875 C 21.777344 -7.382812 19.527344 -6.097656 16.800781 -6.097656 C 13 -6.097656 10.433594 -8.292969 9.738281 -12.253906 L 31.621094 -12.253906 C 31.726562 -13 31.78125 -13.75 31.78125 -14.5 Z M 16.800781 -23.007812 C 20.332031 -23.007812 22.84375 -21.078125 23.96875 -17.546875 L 9.953125 -17.546875 C 10.859375 -20.972656 13.320312 -23.007812 16.800781 -23.007812 Z M 16.800781 -23.007812 "/></g></g></g><g fill="#0e315d" fill-opacity="1"><g transform="translate(267.688581, 46.824186)"><g><path d="M 20.171875 -29.535156 C 16.265625 -29.535156 12.785156 -27.875 10.59375 -25.304688 L 9.09375 -28.890625 L 3.746094 -28.890625 L 3.746094 0 L 11.554688 0 L 11.554688 -15.140625 C 11.554688 -19.796875 14.015625 -22.683594 18.03125 -22.683594 C 21.402344 -22.683594 23.058594 -20.597656 23.058594 -16.210938 L 23.058594 0 L 30.871094 0 L 30.871094 -17.496094 C 30.871094 -24.824219 26.75 -29.535156 20.171875 -29.535156 Z M 20.171875 -29.535156 "/></g></g></g><g fill="#0e315d" fill-opacity="1"><g transform="translate(98.871407, 93.793399)"><g><path d="M 20.707031 -19.527344 L 20.707031 -13.320312 L 31.941406 -13.320312 C 30.550781 -9.46875 26.324219 -6.902344 21.507812 -6.902344 C 14.765625 -6.902344 10.324219 -11.71875 10.324219 -18.671875 C 10.324219 -25.679688 14.875 -30.496094 21.507812 -30.496094 C 26.214844 -30.496094 30.175781 -27.980469 31.78125 -23.96875 L 40.125 -23.96875 C 38.359375 -32.367188 30.65625 -38.253906 21.347656 -38.253906 C 10.273438 -38.253906 2.085938 -29.855469 2.085938 -18.671875 C 2.085938 -7.4375 10.488281 0.855469 21.507812 0.855469 C 32.742188 0.855469 40.609375 -7.8125 40.609375 -19.527344 Z M 20.707031 -19.527344 "/></g></g></g><g fill="#0e315d" fill-opacity="1"><g transform="translate(141.503632, 93.793399)"><g><path d="M 31.78125 -14.5 C 31.78125 -22.84375 25.679688 -29.695312 16.800781 -29.695312 C 8.238281 -29.695312 1.820312 -23.113281 1.820312 -14.445312 C 1.820312 -5.777344 8.292969 0.855469 16.800781 0.855469 C 23.539062 0.855469 29.050781 -3.15625 31.136719 -9.46875 L 22.953125 -9.46875 C 21.777344 -7.382812 19.527344 -6.097656 16.800781 -6.097656 C 13 -6.097656 10.433594 -8.292969 9.738281 -12.253906 L 31.621094 -12.253906 C 31.726562 -13 31.78125 -13.75 31.78125 -14.5 Z M 16.800781 -23.007812 C 20.332031 -23.007812 22.84375 -21.078125 23.96875 -17.546875 L 9.953125 -17.546875 C 10.859375 -20.972656 13.320312 -23.007812 16.800781 -23.007812 Z M 16.800781 -23.007812 "/></g></g></g><g fill="#0e315d" fill-opacity="1"><g transform="translate(175.095895, 93.793399)"><g><path d="M 20.171875 -29.535156 C 16.265625 -29.535156 12.785156 -27.875 10.59375 -25.304688 L 9.09375 -28.890625 L 3.746094 -28.890625 L 3.746094 0 L 11.554688 0 L 11.554688 -15.140625 C 11.554688 -19.796875 14.015625 -22.683594 18.03125 -22.683594 C 21.402344 -22.683594 23.058594 -20.597656 23.058594 -16.210938 L 23.058594 0 L 30.871094 0 L 30.871094 -17.496094 C 30.871094 -24.824219 26.75 -29.535156 20.171875 -29.535156 Z M 20.171875 -29.535156 "/></g></g></g><g fill="#0e315d" fill-opacity="1"><g transform="translate(209.383545, 93.793399)"><g><path d="M 3.746094 -32.742188 L 11.503906 -32.742188 L 11.503906 -39.964844 L 3.746094 -39.964844 Z M 3.746094 0 L 11.554688 0 L 11.554688 -28.890625 L 3.746094 -28.890625 Z M 3.746094 0 "/></g></g></g><g fill="#0e315d" fill-opacity="1"><g transform="translate(224.681934, 93.793399)"><g><path d="M 16.90625 0.855469 C 25.09375 0.855469 30.496094 -4.386719 30.496094 -12.199219 L 30.496094 -28.890625 L 22.683594 -28.890625 L 22.683594 -13.054688 C 22.683594 -8.988281 20.542969 -6.527344 16.90625 -6.527344 C 13.320312 -6.527344 11.128906 -8.933594 11.128906 -13.054688 L 11.128906 -28.890625 L 3.316406 -28.890625 L 3.316406 -12.199219 C 3.316406 -4.386719 8.773438 0.855469 16.90625 0.855469 Z M 16.90625 0.855469 "/></g></g></g><g fill="#0e315d" fill-opacity="1"><g transform="translate(258.541653, 93.793399)"><g><path d="M 13.964844 0.855469 C 21.292969 0.855469 26.109375 -2.996094 26.109375 -8.882812 C 26.109375 -15.945312 20.0625 -16.90625 15.355469 -17.761719 C 12.359375 -18.296875 9.898438 -18.777344 9.898438 -20.707031 C 9.898438 -22.363281 11.34375 -23.433594 13.75 -23.433594 C 16.480469 -23.433594 18.082031 -22.308594 18.136719 -20.011719 L 25.574219 -20.011719 C 25.519531 -25.789062 20.917969 -29.695312 13.964844 -29.695312 C 7.007812 -29.695312 2.355469 -25.894531 2.355469 -20.4375 C 2.355469 -13.644531 8.238281 -12.414062 12.839844 -11.609375 C 15.890625 -11.128906 18.40625 -10.539062 18.40625 -8.558594 C 18.40625 -6.632812 16.425781 -5.617188 14.285156 -5.617188 C 11.503906 -5.617188 9.523438 -6.902344 9.46875 -9.46875 L 1.871094 -9.46875 C 1.871094 -3.316406 6.742188 0.855469 13.964844 0.855469 Z M 13.964844 0.855469 "/></g></g></g></svg>